<svg version="1.2" xmlns="http://www.w3.org/2000/svg" xmlns:xlink="http://www.w3.org/1999/xlink" overflow="visible" preserveAspectRatio="none" viewBox="0 0 1154 1364" width="1154" height="1364"><g transform="translate(0, 0)"><defs><path id="path-16142678079992181" d="M0 0 C0 0 1153.9999999999975 0 1153.9999999999975 0 C1153.9999999999975 0 1153.9999999999975 1364.0000000000005 1153.9999999999975 1364.0000000000005 C1153.9999999999975 1364.0000000000005 0 1364.0000000000005 0 1364.0000000000005 C0 1364.0000000000005 0 0 0 0 Z" vector-effect="non-scaling-stroke"/><linearGradient id="gradient-16142678080292300" x1="0%" y1="50%" x2="100%" y2="50%" vector-effect="non-scaling-stroke"><stop offset="0%" stop-color="rgba(17,24,32,0)" stop-opacity="0" vector-effect="non-scaling-stroke"/><stop offset="24%" stop-color="rgba(17,24,32,0.9)" stop-opacity="0.9" vector-effect="non-scaling-stroke"/><stop offset="51%" stop-color="rgb(17,24,32)" stop-opacity="1" vector-effect="non-scaling-stroke"/><stop offset="78%" stop-color="rgba(17,24,32,0.9)" stop-opacity="0.9" vector-effect="non-scaling-stroke"/><stop offset="100%" stop-color="rgba(17,24,32,0)" stop-opacity="0" vector-effect="non-scaling-stroke"/></linearGradient></defs><g transform="translate(0, 0)"><path d="M0 0 C0 0 1153.9999999999975 0 1153.9999999999975 0 C1153.9999999999975 0 1153.9999999999975 1364.0000000000005 1153.9999999999975 1364.0000000000005 C1153.9999999999975 1364.0000000000005 0 1364.0000000000005 0 1364.0000000000005 C0 1364.0000000000005 0 0 0 0 Z" style="stroke: rgb(140, 140, 140); stroke-width: 0; stroke-linecap: butt; stroke-linejoin: miter; fill: url(&quot;#gradient-16142678080292300&quot;);" vector-effect="non-scaling-stroke"/></g></g></svg>