<svg version="1.2" xmlns="http://www.w3.org/2000/svg" xmlns:xlink="http://www.w3.org/1999/xlink" overflow="visible" preserveAspectRatio="none" viewBox="0 0 24 24" width="28" height="27"><g><path xmlns:default="http://www.w3.org/2000/svg" id="dot-circle-o" d="M13.88,10.12c-1.04-1.04-2.72-1.04-3.76-0.01c0,0-0.01,0.01-0.01,0.01c-1.04,1.04-1.04,2.72-0.01,3.76  c0,0,0.01,0.01,0.01,0.01c1.04,1.04,2.72,1.04,3.76,0.01c0,0,0.01-0.01,0.01-0.01C14.83,12.87,14.74,11.22,13.88,10.12z M14.88,7.12  c0.84,0.49,1.53,1.2,2.02,2.04c1.01,1.76,1.01,3.92,0,5.68c-0.49,0.85-1.21,1.57-2.06,2.06c-1.76,1.01-3.92,1.01-5.68,0  c-0.85-0.49-1.57-1.21-2.06-2.06c-1.01-1.76-1.01-3.92,0-5.68C7.59,8.31,8.31,7.59,9.16,7.1c1.76-1.01,3.92-1.01,5.68,0L14.88,7.12z   M18.92,8c-0.7-1.21-1.71-2.22-2.92-2.92C14.79,4.37,13.41,3.99,12,4c-1.41-0.01-2.79,0.37-4,1.08C6.79,5.78,5.78,6.79,5.08,8  C4.37,9.21,3.99,10.59,4,12c-0.01,1.41,0.36,2.79,1.07,4c0.7,1.21,1.71,2.22,2.93,2.92c1.21,0.71,2.59,1.09,4,1.08  c1.41,0.01,2.79-0.36,4-1.07c1.21-0.7,2.22-1.71,2.92-2.93c0.71-1.21,1.09-2.59,1.08-4C20.01,10.59,19.63,9.21,18.92,8z" style="fill: rgb(255, 103, 27);" vector-effect="non-scaling-stroke"/></g></svg>