<svg xmlns="http://www.w3.org/2000/svg" width="54.619" height="61.012" viewBox="0 0 54.619 61.012">
  <g id="Group_1" data-name="Group 1" transform="translate(-144 -328)">
    <g id="Icon" transform="translate(144 355.268)">
      <path id="music" d="M35.224,5.312a1.953,1.953,0,0,0-1.948-1.948,1.38,1.38,0,0,0-.565,0L15.747,8.545a2.156,2.156,0,0,0-.993.721,1.9,1.9,0,0,0-.39,1.149V30.106a9.572,9.572,0,0,0-5.843-.584,13.119,13.119,0,0,0-2.1.643,4.617,4.617,0,0,0-1.753,1.227,2.707,2.707,0,0,0,0,3.6,4.617,4.617,0,0,0,1.753,1.227,13.119,13.119,0,0,0,2.1.643,8.96,8.96,0,0,0,3.9,0,13.119,13.119,0,0,0,2.1-.643A4.617,4.617,0,0,0,16.273,35a2.722,2.722,0,0,0,.682-1.811V18.829l15.582-4.811V24.906a9.572,9.572,0,0,0-5.843-.584,13.119,13.119,0,0,0-2.1.643,4.617,4.617,0,0,0-1.753,1.227,2.707,2.707,0,0,0,0,3.6,4.617,4.617,0,0,0,1.753,1.227,13.119,13.119,0,0,0,2.1.643,9.377,9.377,0,0,0,3.9,0,13.119,13.119,0,0,0,2.1-.643,4.617,4.617,0,0,0,1.753-1.227,2.65,2.65,0,0,0,.779-1.772V5.312Z" transform="translate(-3.977 -3.335)" fill="#c7c7c7"/>
    </g>
    <g id="Icon-2" data-name="Icon" transform="translate(167.373 328)">
      <path id="music-2" data-name="music" d="M35.224,5.312a1.953,1.953,0,0,0-1.948-1.948,1.38,1.38,0,0,0-.565,0L15.747,8.545a2.156,2.156,0,0,0-.993.721,1.9,1.9,0,0,0-.39,1.149V30.106a9.572,9.572,0,0,0-5.843-.584,13.119,13.119,0,0,0-2.1.643,4.617,4.617,0,0,0-1.753,1.227,2.707,2.707,0,0,0,0,3.6,4.617,4.617,0,0,0,1.753,1.227,13.119,13.119,0,0,0,2.1.643,8.96,8.96,0,0,0,3.9,0,13.119,13.119,0,0,0,2.1-.643A4.617,4.617,0,0,0,16.273,35a2.722,2.722,0,0,0,.682-1.811V18.829l15.582-4.811V24.906a9.572,9.572,0,0,0-5.843-.584,13.119,13.119,0,0,0-2.1.643,4.617,4.617,0,0,0-1.753,1.227,2.707,2.707,0,0,0,0,3.6,4.617,4.617,0,0,0,1.753,1.227,13.119,13.119,0,0,0,2.1.643,9.377,9.377,0,0,0,3.9,0,13.119,13.119,0,0,0,2.1-.643,4.617,4.617,0,0,0,1.753-1.227,2.65,2.65,0,0,0,.779-1.772V5.312Z" transform="translate(-3.977 -3.335)" fill="#c7c7c7"/>
    </g>
  </g>
</svg>
