<svg version="1.2" xmlns="http://www.w3.org/2000/svg" xmlns:xlink="http://www.w3.org/1999/xlink" overflow="visible" preserveAspectRatio="none" viewBox="0 0 1920 301" width="1920" height="301"><g transform="translate(0, 0)"><defs><path id="path-16143055819983620" d="M0 0 C0 0 1919.9999999999993 0 1919.9999999999993 0 C1919.9999999999993 0 1919.9999999999993 301.00000000000006 1919.9999999999993 301.00000000000006 C1919.9999999999993 301.00000000000006 0 301.00000000000006 0 301.00000000000006 C0 301.00000000000006 0 0 0 0 Z" vector-effect="non-scaling-stroke"/><linearGradient id="gradient-16143055820013624" x1="50%" y1="100%" x2="50%" y2="0%" vector-effect="non-scaling-stroke"><stop offset="12%" stop-color="rgb(17,24,32)" stop-opacity="1" vector-effect="non-scaling-stroke"/><stop offset="100%" stop-color="rgba(255,103,27,0.1)" stop-opacity="0.1" vector-effect="non-scaling-stroke"/></linearGradient></defs><g transform="translate(0, 0)"><path d="M0 0 C0 0 1919.9999999999993 0 1919.9999999999993 0 C1919.9999999999993 0 1919.9999999999993 301.00000000000006 1919.9999999999993 301.00000000000006 C1919.9999999999993 301.00000000000006 0 301.00000000000006 0 301.00000000000006 C0 301.00000000000006 0 0 0 0 Z" style="stroke: rgb(140, 140, 140); stroke-width: 0; stroke-linecap: butt; stroke-linejoin: miter; fill: url(&quot;#gradient-16143055820013624&quot;);" vector-effect="non-scaling-stroke"/></g></g></svg>