<svg id="requisito1" xmlns="http://www.w3.org/2000/svg" width="730.2" height="695.1" viewBox="0 0 730.2 695.1">
  <rect id="Rectangle_1" data-name="Rectangle 1" width="730.2" height="695.1" fill="#fff" opacity="0"/>
  <g id="Element_2_">
    <path id="Path_1" data-name="Path 1" d="M547.7,397.6c-6.8-9.7-20.4-16.5-28.9-20.1,7.3-13.9,7.3-14.9,7.3-16.4,0-1.8-.4-2.6-2.3-6.2-16.1-31.1-12.6-38.4-11.1-39.9,3.5-3.7,14.7-16.4,10.2-26.9-1.3-3-4.9-8-14.9-8a46.886,46.886,0,0,0-7.8.8c-13.2,2.4-28.7,1.2-34.5.1-4.3-8.4-18.1-29.3-49-25a63.172,63.172,0,0,1-9.4.7c-18,0-22.4-8.7-23.8-11.5l-.1-.2c-.5-3-1-15-1.2-25a4.477,4.477,0,0,0-.4-2c-.4-1-8.6-24.1-26.2-26.7.1-.2.3-.3.4-.5,6-7.5,13.5-16.8,12.9-26.2-.6-10,9.7-14.9,10.5-15.1,2.5,0,7.1,0,14.8-16.4,17.1-7,25.8-14.1,26-21.1.1-1.9-.5-6.8-7-9.7a34.111,34.111,0,0,0-14.5-2.8c-16.1,0-35.2,8-46.3,19.5a51.531,51.531,0,0,1-26.8,14.3,6.471,6.471,0,0,0-5.6,5.3l-1.4,7.7-11.8-9.8A6.453,6.453,0,0,0,302,135a6.622,6.622,0,0,0-4.4,2.5c-2.4,3.1-23.3,31.1-13.6,51.5,1.1,2.3,1.1,3.5.9,3.8-.9,1.8-7.5,3.1-10.4,3.7-4.5.9-8,1.6-9.7,4-1.7,1.3-9.9,4.1-17.6,6a6.564,6.564,0,0,0-4.4,3.7,6.345,6.345,0,0,0,.3,5.7l6.4,11.3-15.4-4.9a6.415,6.415,0,0,0-8,3.9L217,250.7a6.386,6.386,0,0,0,.6,5.7c4.6,7.5,10,16.3,11.7,19.6-.6,4.7-2.6,18.8-3.9,27.9a6.472,6.472,0,0,0,.1,2.4c3.1,12.7,5,26.3,4.5,30.8a7.734,7.734,0,0,0-2.9,6c0,1.8-.1,5.8,9.1,11.4L225,378.2l-29,13.5a6.507,6.507,0,0,0-3.4,8l2.5,7c-15.4,6.1-16.7,7.2-15.7,12.4a6.591,6.591,0,0,0,4.8,5.1c3.5,1.4,24.6,12.5,39.7,20.6,3.8,6.4,11.9,17.8,20.8,17.8,5.7,0,14.4-2.6,19.5-4.4l10.4,10.4a6.6,6.6,0,0,0,4.6,1.9h21.3c7.8,8.4,14.7,17.4,15.9,20.8-2.1,7.2,6,11.3,12.5,14.7,3.3,1.7,10.1,5.2,10.8,6.8-2.2,5-1.6,10.7,1.7,15.8,6.8,10.5,23.7,16.2,32.4,9.9,5.1-3.7,15.6-5.5,21.1-6.1l12.2,7.9a6.458,6.458,0,0,0,7.6-.5l6.2-5.2,8.9,5.9-12,27.8a6.764,6.764,0,0,0,.1,5.4,6.347,6.347,0,0,0,4.1,3.4c12,3.3,24.4,8.8,26.8,11.8a7.42,7.42,0,0,0,1.7,4.6,6.66,6.66,0,0,0,4.8,2.1c2.5,0,4,0,5.8-6.5h.7a10.478,10.478,0,0,0-.1-2.5c2.5-10.3,5.8-32.7,12.9-80.8a6.183,6.183,0,0,0-.3-3c-3.9-11.8-14.6-39.1-29.7-41.3a29.675,29.675,0,0,1,3.1-8.7l23.4-3.3a6.606,6.606,0,0,0,5.3-4.6,6.5,6.5,0,0,0-2-6.7L456.7,423l1.5-5.8c7.7,1.7,21,4.1,32.2,4.1,10.1,0,17-2,21-6.3,5,3.1,14.3,20.4,14.2,25.2a8.511,8.511,0,0,0,1.2,6.4,6.851,6.851,0,0,0,5.2,2.5c4.2,0,6.5-3.1,10.1-10C545.7,432.6,556.4,409.9,547.7,397.6Zm-13.5,28.1a76.083,76.083,0,0,0-8.7-14.6c-4.9-6.2-9.6-9.2-14.5-9.2a11.673,11.673,0,0,0-8.9,4.4s-1.9,2.2-11.5,2.2c-15,0-35.1-5.2-35.3-5.2a6.533,6.533,0,0,0-7.9,4.6l-4.1,15.8a6.57,6.57,0,0,0,2,6.5l9.9,8.5-12.4,1.8a6.657,6.657,0,0,0-4.6,3c-2.3,3.7-9.4,16.5-5.1,24.8,1.1,2.1,3.9,5.7,10.2,6.2,3.6.2,12.3,14,18.3,31.1-3.3,22.3-7.8,52.2-10.4,69.1a91.971,91.971,0,0,0-18.5-7.9l11.2-26.1a6.45,6.45,0,0,0-2.4-7.9l-17.4-11.6a6.457,6.457,0,0,0-7.7.4l-6.3,5.2L400,520.3a6.321,6.321,0,0,0-4-1c-2,.1-19.9,1.6-29.8,8.7a3.361,3.361,0,0,1-1.9.4c-4.1,0-9.7-3.2-12.1-6.9-1.4-2.1-.9-3.2-.8-3.5,5.4-12.1-8.4-19.2-16.7-23.5-1.7-.9-3.9-2-5.4-2.9-.1-4.5-3.5-13.4-21.5-32.1a6.345,6.345,0,0,0-4.7-2H281.7L270.5,446a6.528,6.528,0,0,0-6.9-1.5c-5,1.9-14.6,5-18.5,5-2.1-.6-7.4-6.9-10.8-12.9a6.267,6.267,0,0,0-2.6-2.5c-14.2-7.6-23.7-12.6-30.3-16,1.5-.6,2.9-1.2,4.3-1.7a6.4,6.4,0,0,0,3.7-8.2l-2.6-7.3,25.8-12a5.875,5.875,0,0,0,3.1-3.1l14.9-31.5a6.5,6.5,0,0,0-3-8.6,58.674,58.674,0,0,1-5.6-3.1c1.7-4.9,1.9-15.3-3.6-38.2,4-27.9,4-29,4-29.6,0-2,0-3-12.2-22.7l5.9-15.7,25.2,8.1a6.491,6.491,0,0,0,7.6-9.4l-10.4-18.5c9.9-3,13.6-5.4,15.2-6.9a22.377,22.377,0,0,1,3.4-.7c6.2-1.3,15.7-3.2,19.4-10.6,2.2-4.3,1.9-9.4-.8-15.1-4.2-8.9,2.8-23.6,8.3-32.5l14.9,12.4a6.558,6.558,0,0,0,10.6-3.8l2.6-14.3A63.282,63.282,0,0,0,361.8,128c10.2-10.5,30.2-18,43-15a101.5,101.5,0,0,1-17.6,9,5.878,5.878,0,0,0-3.5,3.4,67.677,67.677,0,0,1-6.3,11.4c-4.2.9-9.7,4.3-13.7,8.4a26.666,26.666,0,0,0-7.6,20.1c.3,4.4-6,12.2-10.1,17.4-5.4,6.8-9.3,11.7-6.8,17,.8,1.7,3,4.6,8.5,4.6a22.291,22.291,0,0,0,3.3-.3c10.1-1.5,16.7,13.4,18.3,17.3.5,25.9,1.7,27.9,2.7,29.7,7.8,15.4,23.5,18.6,35.4,18.6a89.388,89.388,0,0,0,11.2-.8c26.9-3.7,36.2,19.2,36.6,20.1a6.6,6.6,0,0,0,4.3,4,94.671,94.671,0,0,0,23.2,2.6,109.929,109.929,0,0,0,19.9-1.8,29.617,29.617,0,0,1,5.5-.6c1.9,0,2.8.3,3,.2.1,1.6-1.9,6.8-7.6,12.7-11.2,11.6-1.1,35.4,9,54.8.1.2.2.3.2.4-1.7,3.5-5.4,10.6-8.6,16.7a6.609,6.609,0,0,0-.3,5.5,6.385,6.385,0,0,0,4,3.7c6.1,2,23.4,9.2,29.5,17.9C539.6,408.5,537.3,417.7,534.2,425.7Z" fill="#111820"/>
  </g>
</svg>
