<svg id="requisito8" xmlns="http://www.w3.org/2000/svg" width="730.2" height="695.1" viewBox="0 0 730.2 695.1">
  <rect id="Rectangle_12" data-name="Rectangle 12" width="730.2" height="695.1" fill="#fff" opacity="0"/>
  <path id="Path_40" data-name="Path 40" d="M517,572.1H213.2a72.723,72.723,0,0,1-72.7-72.7V192.6a69.741,69.741,0,0,1,52.3-67.5l4.1-1.1v27l-1.4,1a16.678,16.678,0,1,0,26.3,13.6,16.473,16.473,0,0,0-7.1-13.6l-1.4-1V122.9h63.6V151l-1.4,1a16.678,16.678,0,1,0,26.3,13.6,16.473,16.473,0,0,0-7.1-13.6l-1.4-1V122.9h63.6V151l-1.4,1a16.678,16.678,0,1,0,26.3,13.6,16.473,16.473,0,0,0-7.1-13.6l-1.4-1V122.9h63.6V151l-1.4,1a16.678,16.678,0,1,0,26.3,13.6,16.473,16.473,0,0,0-7.1-13.6l-1.4-1V122.9h63.6V151l-1.4,1a16.678,16.678,0,1,0,26.3,13.6,16.473,16.473,0,0,0-7.1-13.6l-1.4-1V128.3h3.2l.8-3.2c.6.2,1.2.3,1.8.5l.7.2a69.782,69.782,0,0,1,49.9,66.8V499.4A72.723,72.723,0,0,1,517,572.1ZM190.3,132.7A63.158,63.158,0,0,0,147,192.6V499.4a66.236,66.236,0,0,0,66.1,66.1H517a66.236,66.236,0,0,0,66.1-66.1V192.6a63.064,63.064,0,0,0-43.3-59.9v15a23.15,23.15,0,1,1-29.5,0V129.5H459.8v18.2a23.25,23.25,0,1,1-29.5,0V129.5H379.8v18.2a23.184,23.184,0,1,1-37.9,17.9,23.112,23.112,0,0,1,8.5-17.9V129.5H299.9v18.2A23.184,23.184,0,1,1,262,165.6a23.112,23.112,0,0,1,8.5-17.9V129.5H220v18.2a23.184,23.184,0,1,1-37.9,17.9,23.112,23.112,0,0,1,8.5-17.9v-15ZM517,563.5H213.2a64.188,64.188,0,0,1-64-64V264.8H581V499.4a64.36,64.36,0,0,1-64,64.1ZM155.7,271.3V499.4a57.7,57.7,0,0,0,57.5,57.5H517a57.7,57.7,0,0,0,57.5-57.5V271.3Zm369.4-94.5a11.182,11.182,0,0,1-11.2-11.2,11.449,11.449,0,0,1,4.2-8.8V122.9l3.3.1c2.6.1,5.3.3,7.9.6l2.8.4v32.9a11.3,11.3,0,0,1,4.2,8.8A11.161,11.161,0,0,1,525.1,176.8Zm-.5-47.2v30.9l-1.7.9a4.76,4.76,0,0,0-2.5,4.2,4.7,4.7,0,1,0,6.9-4.1l-1.7-.9V129.8C525.3,129.7,524.9,129.7,524.6,129.6Zm-79.5,47.2a11.182,11.182,0,0,1-11.2-11.2,11.449,11.449,0,0,1,4.2-8.8V122.9h14.1v33.9a11.239,11.239,0,0,1-7.1,20Zm-.5-47.3v31.1l-1.7.9a4.76,4.76,0,0,0-2.5,4.2,4.7,4.7,0,1,0,6.9-4.1l-1.7-.9V129.6h-1Zm-79.5,47.3a11.182,11.182,0,0,1-11.2-11.2,11.449,11.449,0,0,1,4.2-8.8V122.9h14.1v33.9a11.239,11.239,0,0,1-7.1,20Zm-.5-47.3v31.1l-1.7.9a4.76,4.76,0,0,0-2.5,4.2,4.7,4.7,0,1,0,6.9-4.1l-1.7-.9V129.6h-1Zm-79.5,47.3a11.182,11.182,0,0,1-11.2-11.2,11.449,11.449,0,0,1,4.2-8.8V122.9h14.1v33.9a11.239,11.239,0,0,1-7.1,20Zm-.5-47.3v31.1l-1.7.9a4.76,4.76,0,0,0-2.5,4.2,4.7,4.7,0,1,0,6.9-4.1l-1.7-.9V129.6h-1Zm-79.5,47.3a11.182,11.182,0,0,1-11.2-11.2,11.45,11.45,0,0,1,4.2-8.8V123.9l2.8-.4a70,70,0,0,1,7.9-.6l3.3-.1v33.9a11.306,11.306,0,0,1-7,20.1Zm-.5-47.1v30.8l-1.7.9a4.76,4.76,0,0,0-2.5,4.2,4.7,4.7,0,1,0,6.9-4.1l-1.7-.9V129.7Z" fill="#111820"/>
  <path id="Path_41" data-name="Path 41" d="M247.2,209.3h26.2v6.8H257v5h15.2v6.5H257v6.2h16.9V241H247.2V209.3Zm29.8,0h10.8l5.6,9.8,5.5-9.8h10.7l-9.8,15.4L310.6,241h-11l-6.2-10.2L287,241H276.1L287,224.5l-10-15.2Zm36.6,0h16.3c3.5,0,6.2.8,8,2.5s2.6,4.1,2.6,7.2a9.864,9.864,0,0,1-2.9,7.5c-1.9,1.8-4.9,2.7-8.8,2.7h-5.4V241h-9.8V209.3Zm9.8,13.5h2.4c1.9,0,3.2-.3,4-1a3.17,3.17,0,0,0,1.2-2.5,3.317,3.317,0,0,0-1-2.5c-.7-.7-1.9-1-3.8-1h-2.8v7Zm37.1-13.5h14.6a17.269,17.269,0,0,1,7,1.2,12.158,12.158,0,0,1,4.4,3.3,13.515,13.515,0,0,1,2.5,5.1,24.272,24.272,0,0,1,.8,6.1,20.8,20.8,0,0,1-1.2,7.9,13.078,13.078,0,0,1-3.2,4.7,9.836,9.836,0,0,1-4.4,2.5,21.619,21.619,0,0,1-5.8.9H360.6V209.3Zm9.8,7.2v17.3h2.4a9.5,9.5,0,0,0,4.4-.7,4.43,4.43,0,0,0,2-2.4,14.876,14.876,0,0,0,.7-5.5c0-3.4-.5-5.7-1.6-6.9s-2.9-1.9-5.5-1.9h-2.4Zm42.1,19.3H401.3l-1.6,5.2h-10l11.9-31.7h10.7L424.2,241H414l-1.6-5.2Zm-2.1-6.9-3.5-11.4-3.5,11.4Zm11.8-19.6h29.8v7.8h-10V241h-9.8V217.1h-10v-7.8Zm34.2,0h26.2v6.8H466.1v5h15.2v6.5H466.1v6.2H483V241H456.3V209.3Z" fill="#111820"/>
  <path id="Path_42" data-name="Path 42" d="M330.6,429.6h10.9l6.4,10.7,6.4-10.7h10.8L352.8,448v13.3H343V448l-12.4-18.4Zm34.5,0H376l6.4,10.7,6.4-10.7h10.8L387.3,448v13.3h-9.8V448l-12.4-18.4Z" fill="#111820"/>
  <path id="Path_43" data-name="Path 43" d="M222.1,289.8H235l4.9,19.3,4.9-19.3h12.9v31.7h-8V297.3l-6.2,24.2h-7.3L230,297.3v24.2h-8V289.8Zm41.8,0h12.9l4.9,19.3,4.9-19.3h12.9v31.7h-8V297.3l-6.2,24.2H278l-6.2-24.2v24.2h-8V289.8Z" fill="#111820"/>
  <path id="Path_44" data-name="Path 44" d="M191.2,398.7a2.2,2.2,0,0,1,0-4.4H330.5a2.2,2.2,0,0,1,0,4.4Z" fill="#111820"/>
  <path id="Path_45" data-name="Path 45" d="M437.5,289.8H452a17.269,17.269,0,0,1,7,1.2,12.158,12.158,0,0,1,4.4,3.3,13.515,13.515,0,0,1,2.5,5.1,24.272,24.272,0,0,1,.8,6.1,20.8,20.8,0,0,1-1.2,7.9,13.078,13.078,0,0,1-3.2,4.7,9.836,9.836,0,0,1-4.4,2.5,21.619,21.619,0,0,1-5.8.9H437.5V289.8Zm9.8,7.2v17.3h2.4a9.5,9.5,0,0,0,4.4-.7,4.43,4.43,0,0,0,2-2.4,14.876,14.876,0,0,0,.7-5.5c0-3.4-.5-5.7-1.6-6.9s-2.9-1.9-5.5-1.9h-2.4Zm24.6-7.2h14.6a17.269,17.269,0,0,1,7,1.2,12.158,12.158,0,0,1,4.4,3.3,13.515,13.515,0,0,1,2.5,5.1,24.272,24.272,0,0,1,.8,6.1,20.8,20.8,0,0,1-1.2,7.9,13.078,13.078,0,0,1-3.2,4.7,9.836,9.836,0,0,1-4.4,2.5,21.619,21.619,0,0,1-5.8.9H472V289.8Zm9.8,7.2v17.3h2.4a9.5,9.5,0,0,0,4.4-.7,4.43,4.43,0,0,0,2-2.4,14.876,14.876,0,0,0,.7-5.5c0-3.4-.5-5.7-1.6-6.9s-2.9-1.9-5.5-1.9h-2.4Z" fill="#111820"/>
  <path id="Path_46" data-name="Path 46" d="M399.7,398.7a2.2,2.2,0,0,1,0-4.4H539a2.2,2.2,0,1,1,0,4.4Z" fill="#111820"/>
  <path id="Path_47" data-name="Path 47" d="M260.8,538.5a2.2,2.2,0,0,1,0-4.4H469.3a2.2,2.2,0,0,1,0,4.4Z" fill="#111820"/>
  <g id="Group_19" data-name="Group 19">
    <path id="Path_48" data-name="Path 48" d="M438.4,376.3l10.4-2.7c0,5,1.7,7.6,5.2,7.6a4.7,4.7,0,0,0,3.9-1.5,6.043,6.043,0,0,0,1.3-4.2c0-3.8-1.8-5.7-5.3-5.7h-2.8v-8.5h3a3.053,3.053,0,0,0,2.9-1.6,8.565,8.565,0,0,0,1-4.1,6.092,6.092,0,0,0-1-3.6,3.056,3.056,0,0,0-2.7-1.5,3.819,3.819,0,0,0-3.8,2.2,15.678,15.678,0,0,0-1.3,6.3l-10-2.8q.45-7.5,4.2-11.4c2.5-2.5,6.2-3.8,11.2-3.8a14.84,14.84,0,0,1,5.7,1,11.635,11.635,0,0,1,4.4,2.7,13.271,13.271,0,0,1,2.9,4.1,12.7,12.7,0,0,1,1,5.2q0,7.8-5.4,10.8v.2a8.827,8.827,0,0,1,4.9,3.8,12.632,12.632,0,0,1,1.7,6.9,16.978,16.978,0,0,1-1.1,6.1,14.428,14.428,0,0,1-3.2,4.8,15.691,15.691,0,0,1-5,3.1,18.837,18.837,0,0,1-6.5,1.1C444.3,390.6,439.1,385.9,438.4,376.3Z" fill="#111820"/>
    <path id="Path_49" data-name="Path 49" d="M490.6,342.2v47.2h-9.8V356l-4.7,4.3-5.3-7.8,12.8-10.3Z" fill="#111820"/>
  </g>
  <g id="Group_20" data-name="Group 20">
    <path id="Path_50" data-name="Path 50" d="M295.5,520.4l7-5.3c2-1.7,3.7-3.3,5.3-4.9a26.954,26.954,0,0,0,3.9-4.7,16.941,16.941,0,0,0,2.4-4.6,15.1,15.1,0,0,0,.8-4.8c0-4.6-1.4-6.9-4.1-6.9q-5.1,0-5.1,9.6l-10.2-1.6c0-6,1.2-10.5,3.7-13.3s6.3-4.2,11.5-4.2a17.294,17.294,0,0,1,6.3,1.1,13.345,13.345,0,0,1,4.6,3.1,12.687,12.687,0,0,1,2.8,4.8,20.957,20.957,0,0,1,1,6.4,21.857,21.857,0,0,1-2.7,11.2c-1.8,3-5,6.7-9.5,11l-2.1,1.6h14.5v9.3H295.3v-7.8Z" fill="#111820"/>
    <path id="Path_51" data-name="Path 51" d="M329.5,504.6a53.39,53.39,0,0,1,.7-8.9,25.176,25.176,0,0,1,2.7-8,14.959,14.959,0,0,1,14.2-8c3.6,0,6.6.7,8.8,2.2a15.032,15.032,0,0,1,5.1,5.8,24.925,24.925,0,0,1,2.4,8,66.534,66.534,0,0,1,.6,8.9,46.745,46.745,0,0,1-1.1,10.4,23.181,23.181,0,0,1-3.2,7.8,14.582,14.582,0,0,1-5.3,4.9,15.841,15.841,0,0,1-7.4,1.7c-6.2,0-10.6-2-13.4-6.1S329.5,513.1,329.5,504.6ZM347.1,520a4.984,4.984,0,0,0,5-3.7c.9-2.5,1.4-6.4,1.4-11.7a37.664,37.664,0,0,0-1.4-11.5c-.9-2.6-2.6-4-5-4-3,0-5,1.7-5.8,5a40.477,40.477,0,0,0-.9,4.8,47.9,47.9,0,0,0-.2,5.6c0,5.2.5,9,1.5,11.6A5.271,5.271,0,0,0,347.1,520Z" fill="#111820"/>
    <path id="Path_52" data-name="Path 52" d="M367.9,520.4l7-5.3c2-1.7,3.7-3.3,5.3-4.9a26.954,26.954,0,0,0,3.9-4.7,16.941,16.941,0,0,0,2.4-4.6,15.1,15.1,0,0,0,.8-4.8c0-4.6-1.4-6.9-4.1-6.9q-5.1,0-5.1,9.6l-10.2-1.6c0-6,1.2-10.5,3.7-13.3s6.3-4.2,11.5-4.2a17.294,17.294,0,0,1,6.3,1.1,13.345,13.345,0,0,1,4.6,3.1,12.687,12.687,0,0,1,2.8,4.8,20.957,20.957,0,0,1,1,6.4,21.857,21.857,0,0,1-2.7,11.2c-1.8,3-5,6.7-9.5,11l-2.1,1.6H398v9.3H367.7v-7.8Z" fill="#111820"/>
    <path id="Path_53" data-name="Path 53" d="M401.2,520.4l7-5.3c2-1.7,3.7-3.3,5.3-4.9a26.954,26.954,0,0,0,3.9-4.7,16.941,16.941,0,0,0,2.4-4.6,15.1,15.1,0,0,0,.8-4.8c0-4.6-1.4-6.9-4.1-6.9q-5.1,0-5.1,9.6l-10.2-1.6c0-6,1.2-10.5,3.7-13.3s6.3-4.2,11.5-4.2a17.294,17.294,0,0,1,6.3,1.1,13.345,13.345,0,0,1,4.6,3.1,12.687,12.687,0,0,1,2.8,4.8,20.957,20.957,0,0,1,1,6.4,21.857,21.857,0,0,1-2.7,11.2c-1.8,3-5,6.7-9.5,11l-2.1,1.6h14.5v9.3H401v-7.8Z" fill="#111820"/>
  </g>
  <g id="Group_21" data-name="Group 21">
    <path id="Path_54" data-name="Path 54" d="M247.4,342.2v47.2h-9.8V356l-4.7,4.3-5.3-7.8,12.8-10.3Z" fill="#111820"/>
    <path id="Path_55" data-name="Path 55" d="M253,381.6l7-5.3c2-1.7,3.7-3.3,5.3-4.9a26.954,26.954,0,0,0,3.9-4.7,16.941,16.941,0,0,0,2.4-4.6,15.1,15.1,0,0,0,.8-4.8c0-4.6-1.4-6.9-4.1-6.9q-5.1,0-5.1,9.6L253,358.4c0-6,1.2-10.5,3.7-13.3s6.3-4.2,11.5-4.2a17.294,17.294,0,0,1,6.3,1.1,13.345,13.345,0,0,1,4.6,3.1,12.687,12.687,0,0,1,2.8,4.8,20.957,20.957,0,0,1,1,6.4,21.857,21.857,0,0,1-2.7,11.2c-1.8,3-5,6.7-9.5,11l-2.1,1.6h14.5v9.3H253Z" fill="#111820"/>
  </g>
</svg>
