<svg id="requisito7" xmlns="http://www.w3.org/2000/svg" width="730.2" height="695.1" viewBox="0 0 730.2 695.1">
  <rect id="Rectangle_11" data-name="Rectangle 11" width="730.2" height="695.1" fill="#fff" opacity="0"/>
  <g id="Group_18" data-name="Group 18">
    <g id="Group_17" data-name="Group 17">
      <path id="Path_34" data-name="Path 34" d="M397.2,331a6.126,6.126,0,0,0-3.8,1.2c-31.7,23.1-55.5-1.4-60.2-1.4h0a50.157,50.157,0,0,0-18.4,7.5c-17.5,11.1-26.6,33-26.8,46.9v.5a6.25,6.25,0,0,0,1.6,3.8h0c49.9,49.9,115.4,39.1,150.8.9a6.533,6.533,0,0,0,1.7-5C437.9,344.5,405.3,331,397.2,331Zm13,67.3V375.4c0-8.5-12.8-8.5-12.8,0v29a88.85,88.85,0,0,1-64,0v-29c0-8.5-12.8-8.5-12.8,0v22.9a91.782,91.782,0,0,1-19.5-15.1c3.2-20.8,15.1-33.9,30.9-39,21.5,14.5,45.8,13.8,66.3.2,16,5.3,27.7,18.6,30.6,39.5A86.437,86.437,0,0,1,410.2,398.3ZM624.1,557.8,616,532.7a6.384,6.384,0,0,0-8.1-4.1l-4.1,1.3c20.6-136.2,40.7-105.6-65.5-208.1V154.4a6.445,6.445,0,0,0-6.4-6.4H198.4a6.445,6.445,0,0,0-6.4,6.4V321.8c-105.7,102-86.3,71.3-65.5,208.1-12.4-4-10.5-2.4-20.3,27.9-2.6,8.1,9.6,12,12.2,3.9l6.1-19,104.4,33.7-14,43.2a6.42,6.42,0,0,0,12.2,4l4.8-14.8H498.5c4.5,14,4.9,19.2,10.9,19.2a6.445,6.445,0,0,0,6.1-8.4l-14-43.2,104.4-33.7,6.2,19a6.31,6.31,0,1,0,12-3.9ZM605.9,415.3c6,20.2-17.1,110.7-15.2,118.8l-76.3,24.7c-8.4-16.1-31.5-48.2-33.1-54.9-2-8.5-1.5-72.1-4.1-80.5-10.3-34.2-4.4-46.9,0-51.5a14.347,14.347,0,0,1,13.7-3.6c19.2,4.9,13,40.8,22.2,63.9,1.3,3.2,14.7,21.7,22.4,14.9a6.313,6.313,0,0,0,2.1-4.2c1.1-2.3.7,3.6.7-103.4C561.9,361.7,602.7,399.4,605.9,415.3ZM125.5,412c6.6-17.4,49.7-56.8,66.5-72.6,0,106.9-.4,101.1.7,103.4a6.349,6.349,0,0,0,7.1,5.8c6-.7,16-13,17.4-16.5,9.2-23.1,3-59,22.2-63.9,3.8-1,9.6-.6,13.6,3.6,4.4,4.6,10.2,17.3,0,51.5-2.9,9.8-1.4,75.6-4.9,82.6-5,10.8-24.2,37.3-32.2,52.8L139.6,534C141.6,525.2,117,434.4,125.5,412ZM494.3,596H236c9.9-30.5,11.4-27-7.7-33.2,9.8-17.8,30.8-45.8,33.2-56,2.3-10,2.1-73,3.8-79.8,18.1-60.1-8.3-76.5-29.1-71.2-29.7,7.6-22.3,49.5-30.7,71.3,0-111,.4-103.7-.6-105.9V160.8H525.5V321.2c-1,2.2-.6-5.1-.6,105.9-8.5-22.1-1.1-63.6-30.7-71.3-17-4.4-48.5,6.4-29.1,71.2,1.8,6.9,1.5,69.7,3.9,79.8,2.4,10,23.5,38.4,33.2,55.9C482.4,569.2,484.7,566.3,494.3,596Zm-297.1,4.7c-10.4-5.9-1.5-21.6,8.9-15.7S207.6,606.6,197.2,600.7Zm335.8,0c-10.4,5.9-19.3-9.8-8.9-15.7S543.4,594.8,533,600.7ZM307.2,500h51.2c8.5,0,8.5,12.8,0,12.8H307.2C298.7,512.8,298.7,500,307.2,500Zm70.4,12.8c-8.5,0-8.5-12.8,0-12.8H416c8.5,0,8.5,12.8,0,12.8Zm44.8-32H307.2a6.4,6.4,0,1,1,0-12.8H422.4C430.9,468,430.9,480.8,422.4,480.8Zm0,64H307.2c-8.5,0-8.5-12.8,0-12.8H422.4C430.9,532,430.9,544.8,422.4,544.8ZM321.6,299.6c5.7,19.7,23.6,36.1,44.7,36.1,15.9,0,36.2-13.6,42.8-36.1,8.2-8.5,10.2-23.7,3.5-30,15.4-68-109.6-68.4-94.4.1C311,276.3,313.9,291.6,321.6,299.6Zm77.5-8.2a6.309,6.309,0,0,0-2,3.3c-3.6,14.5-15.9,27.3-32.3,28.2-10.7.2-26.9-10.4-31.3-28.2a6.309,6.309,0,0,0-2-3.3c-3.7-3.2-5.2-9.2-4.5-12.4a6.515,6.515,0,0,0,4.8-4.4c7.1-23.7,14.2-7.1,35.6-8.3,18.1-1,24.8-13.8,31.4,8.3a6.352,6.352,0,0,0,4.8,4.4C404.3,282.2,402.8,288.1,399.1,291.4ZM366,231.2c16.5.1,29.7,5.4,33.9,21.4-8.1-6-16.1-3.4-21.9-1.5-25.1,8.1-31.9-9.9-47.3,1.5C334.9,236,348.9,231.3,366,231.2Z" fill="#111820"/>
      <g id="Group_16" data-name="Group 16">
        <path id="Path_35" data-name="Path 35" d="M260.1,104.4a67.671,67.671,0,0,1,.8-10.1,28.673,28.673,0,0,1,3-9.1,18.39,18.39,0,0,1,6.1-6.6c2.6-1.7,5.9-2.5,10-2.5s7.5.8,10,2.5a16.772,16.772,0,0,1,5.8,6.6,28.516,28.516,0,0,1,2.8,9.1,68.59,68.59,0,0,1,.7,10.1,54.473,54.473,0,0,1-1.2,11.9,26.754,26.754,0,0,1-3.6,8.9,16.881,16.881,0,0,1-6,5.6,17.356,17.356,0,0,1-8.4,1.9q-10.5,0-15.3-6.9C261.6,121.2,260.1,114.1,260.1,104.4ZM280,121.9q4.05,0,5.7-4.2c1-2.8,1.6-7.2,1.6-13.3,0-5.7-.5-10-1.6-13s-2.9-4.5-5.7-4.5c-3.4,0-5.7,1.9-6.7,5.7a35.346,35.346,0,0,0-1,5.5,58.5,58.5,0,0,0-.3,6.4c0,5.9.6,10.3,1.7,13.2C275,120.5,277,121.9,280,121.9Z" fill="#111820"/>
        <path id="Path_36" data-name="Path 36" d="M324.2,77.6v53.7H313.1v-38l-5.3,4.9-6.1-8.9,14.6-11.7h7.9Z" fill="#111820"/>
        <path id="Path_37" data-name="Path 37" d="M361.1,114q1.2,8.4,6.9,8.4a7.347,7.347,0,0,0,4.9-1.4c1-.9,1.5-2.5,1.5-4.6,0-2.2-1.1-3.9-3.3-5.2a16.079,16.079,0,0,0-3.3-1.5c-1.1-.3-2.4-.8-4.1-1.4a39.82,39.82,0,0,1-5.4-2.3,11.931,11.931,0,0,1-3.9-3,13.725,13.725,0,0,1-2.4-4.3,20.26,20.26,0,0,1-.8-6,19.4,19.4,0,0,1,1.2-7,13.885,13.885,0,0,1,3.6-5.3,14.862,14.862,0,0,1,5.6-3.3,21.092,21.092,0,0,1,7.3-1.2c5.4,0,9.6,1.3,12.5,3.9s4.5,6.3,4.7,11.1l-11.1,3a10.727,10.727,0,0,0-1.9-5.8,5.219,5.219,0,0,0-4.4-1.9q-5.1,0-5.1,6a5.625,5.625,0,0,0,2,4.7c1.3.9,4.2,2.1,8.5,3.4a30.427,30.427,0,0,1,5.7,2.5,15.8,15.8,0,0,1,4,3.1,10.773,10.773,0,0,1,2.3,4.2,18.369,18.369,0,0,1,.7,5.5c0,5.7-1.6,9.9-4.9,12.7s-7.8,4.2-13.5,4.2c-10.9,0-16.9-4.7-18.2-14.2Z" fill="#111820"/>
        <path id="Path_38" data-name="Path 38" d="M391.1,131.3V77.6h31.3v9.9H402.8V99.9h17.8v9.7H402.8v11.8h20.1v9.9Z" fill="#111820"/>
        <path id="Path_39" data-name="Path 39" d="M427.5,77.6h17.4a22.639,22.639,0,0,1,7.7,1.2,14.832,14.832,0,0,1,5.5,3.5,13.971,13.971,0,0,1,3.3,5.5,22.5,22.5,0,0,1,1.1,7.1c0,5.7-1.6,10.2-4.7,13.5s-7.5,4.9-13.1,4.9h-5.5v17.9H427.5V77.6Zm11.7,10.7v14.4h5.2c3.7,0,5.5-2.5,5.5-7.4a8.689,8.689,0,0,0-1.4-5.2,4.768,4.768,0,0,0-4-1.8Z" fill="#111820"/>
      </g>
    </g>
  </g>
</svg>
