<svg version="1.2" xmlns="http://www.w3.org/2000/svg" xmlns:xlink="http://www.w3.org/1999/xlink" overflow="visible" preserveAspectRatio="none" viewBox="0 0 966 276" width="966" height="276"><g transform="translate(0, 0)"><defs><path id="path-1614247209711240" d="M0 0 C0 0 965.9999999999995 0 965.9999999999995 0 C965.9999999999995 0 965.9999999999995 275.99999999999994 965.9999999999995 275.99999999999994 C965.9999999999995 275.99999999999994 0 275.99999999999994 0 275.99999999999994 C0 275.99999999999994 0 0 0 0 Z" vector-effect="non-scaling-stroke"/><linearGradient id="gradient-16142472097751116" x1="0%" y1="50%" x2="100%" y2="50%" vector-effect="non-scaling-stroke"><stop offset="76%" stop-color="rgb(218,218,218)" stop-opacity="1" vector-effect="non-scaling-stroke"/><stop offset="100%" stop-color="rgba(218,218,218,0)" stop-opacity="0" vector-effect="non-scaling-stroke"/></linearGradient></defs><g transform="translate(0, 0)"><path d="M0 0 C0 0 965.9999999999995 0 965.9999999999995 0 C965.9999999999995 0 965.9999999999995 275.99999999999994 965.9999999999995 275.99999999999994 C965.9999999999995 275.99999999999994 0 275.99999999999994 0 275.99999999999994 C0 275.99999999999994 0 0 0 0 Z" style="stroke: rgb(140, 140, 140); stroke-width: 0; stroke-linecap: butt; stroke-linejoin: miter; fill: url(&quot;#gradient-16142472097751116&quot;);" vector-effect="non-scaling-stroke"/></g></g></svg>